<?xml version="1.0" standalone="no"?>
<!DOCTYPE svg PUBLIC "-//W3C//DTD SVG 20010904//EN"
 "http://www.w3.org/TR/2001/REC-SVG-20010904/DTD/svg10.dtd">
<svg version="1.0" xmlns="http://www.w3.org/2000/svg"
 width="224.000000pt" height="54.000000pt" viewBox="0 0 224.000000 54.000000"
 preserveAspectRatio="xMidYMid meet">

<g transform="translate(0.000000,54.000000) scale(0.100000,-0.100000)"
fill="yellow" stroke="none">
<path d="M0 360 l0 -180 58 0 57 0 59 148 c33 81 66 162 73 180 l13 32 -130 0
-130 0 0 -180z m240 163 c0 -5 -30 -81 -66 -170 l-66 -163 -49 0 -49 0 0 170
0 170 115 0 c63 0 115 -3 115 -7z"/>
<path d="M286 488 c-13 -29 -49 -119 -82 -200 l-59 -148 -72 0 -73 0 0 -70 0
-70 118 0 117 0 80 200 80 200 73 0 72 0 0 70 0 70 -116 0 -115 0 -23 -52z
m244 -18 l0 -59 -71 -3 -71 -3 -80 -197 -81 -198 -108 0 -109 0 0 60 0 59 71
3 71 3 80 198 81 197 108 0 109 0 0 -60z"/>
<path d="M738 301 c4 -96 20 -116 88 -116 65 0 78 19 82 115 3 54 1 80 -7 80
-7 0 -11 -27 -11 -75 0 -62 -4 -79 -20 -95 -24 -24 -38 -25 -68 -4 -20 13 -22
24 -22 95 0 75 -1 79 -22 79 -22 0 -23 -3 -20 -79z"/>
<path d="M366 212 c-33 -81 -66 -162 -73 -180 l-13 -32 130 0 130 0 0 180 0
180 -57 0 -58 0 -59 -148z m164 -32 l0 -170 -115 0 c-63 0 -115 3 -115 8 0 4
30 80 66 170 l66 162 49 0 49 0 0 -170z"/>
<path d="M1005 270 c0 -73 2 -80 20 -80 18 0 20 7 20 80 0 73 -2 80 -20 80
-18 0 -20 -7 -20 -80z"/>
<path d="M1088 309 c-16 -21 -28 -43 -28 -47 0 -19 57 -74 73 -71 16 4 15 9
-12 44 -17 22 -31 44 -31 49 0 6 12 23 27 38 17 18 22 28 12 28 -8 -1 -26 -19
-41 -41z"/>
<path d="M1240 270 c0 -73 2 -80 20 -80 18 0 20 7 20 76 0 72 1 75 22 72 28
-4 35 -34 14 -57 -14 -16 -14 -20 3 -52 13 -24 26 -35 46 -37 l27 -4 -27 36
c-27 35 -27 37 -10 56 15 17 16 24 7 45 -10 22 -18 25 -67 25 l-55 0 0 -80z"/>
<path d="M1511 303 c-40 -81 -52 -113 -42 -113 5 0 13 9 16 20 5 15 15 20 40
20 25 0 35 -5 40 -20 4 -12 15 -20 29 -20 22 0 22 2 -16 80 -21 44 -39 80 -41
80 -2 0 -14 -21 -26 -47z m32 -43 c4 -16 0 -20 -19 -20 -27 0 -28 3 -13 31 12
22 24 18 32 -11z"/>
<path d="M1700 270 c0 -72 2 -80 19 -80 17 0 20 9 23 80 3 77 2 80 -19 80 -22
0 -23 -4 -23 -80z"/>
<path d="M1841 270 c2 -71 4 -80 20 -80 16 0 19 8 19 50 0 28 4 50 8 50 5 0
21 -14 38 -31 16 -17 41 -40 57 -51 l27 -19 0 80 c0 74 -2 81 -19 81 -17 0
-20 -8 -23 -52 l-3 -51 -56 51 c-31 29 -60 52 -63 52 -4 0 -6 -36 -5 -80z"/>
<path d="M2110 270 l0 -81 57 3 c40 2 58 7 61 18 4 12 2 13 -9 3 -7 -7 -26
-13 -41 -13 -24 0 -28 4 -28 30 0 27 3 30 30 30 17 0 30 4 30 10 0 5 -13 7
-30 4 -29 -6 -30 -5 -30 31 0 37 1 37 35 33 19 -2 35 0 35 4 0 4 -25 8 -55 8
l-55 0 0 -80z"/>
</g>
</svg>
